<svg width="40" height="40" viewBox="0 0 40 40" fill="none" xmlns="http://www.w3.org/2000/svg">
<g clip-path="url(#clip0_108_9751)">
<circle cx="20" cy="20" r="20" fill="white"/>
<g clip-path="url(#clip1_108_9751)">
<path d="M21.09 18.77C21.14 18.7 21.18 18.66 21.21 18.6C21.75 17.73 22.54 17.2 23.52 16.92C24.12 16.75 24.74 16.74 25.36 16.8C25.73 16.83 26.09 16.89 26.45 17C27.28 17.24 27.95 17.71 28.42 18.45C28.7 18.9 28.87 19.39 29 19.9C29.08 20.22 29.12 20.55 29.16 20.87C29.25 21.53 29.26 22.2 29.26 22.87C29.26 24.94 29.26 27.01 29.26 29.09C29.26 29.24 29.26 29.24 29.11 29.24C27.95 29.24 26.79 29.24 25.62 29.24C25.57 29.24 25.52 29.24 25.47 29.24C25.47 29.21 25.47 29.19 25.47 29.16C25.47 27.2 25.47 25.25 25.47 23.29C25.47 22.82 25.44 22.35 25.4 21.89C25.38 21.55 25.27 21.22 25.11 20.92C24.86 20.45 24.46 20.19 23.93 20.11C23.51 20.04 23.09 20.07 22.67 20.19C22.16 20.34 21.8 20.67 21.58 21.14C21.39 21.55 21.29 21.99 21.27 22.44C21.26 22.66 21.25 22.88 21.25 23.09C21.25 25.1 21.25 27.1 21.25 29.11C21.25 29.29 21.27 29.26 21.09 29.26C19.9 29.26 18.71 29.26 17.52 29.26C17.5 29.26 17.47 29.26 17.44 29.26V17.07C17.44 17.07 17.49 17.07 17.51 17.07C18.66 17.07 19.8 17.07 20.95 17.07C21.08 17.07 21.07 17.06 21.07 17.19C21.07 17.7 21.07 18.22 21.07 18.73C21.07 18.73 21.07 18.74 21.08 18.78L21.09 18.77Z" fill="#00008E"/>
<path d="M15.07 29.2599C15.07 29.2599 14.98 29.2599 14.94 29.2599C13.76 29.2599 12.57 29.2599 11.39 29.2599C11.31 29.2599 11.3 29.2399 11.3 29.1599C11.3 29.0299 11.3 28.8999 11.3 28.7699C11.3 24.9299 11.3 21.0899 11.3 17.2499C11.3 17.2299 11.3 17.2199 11.3 17.1999C11.3 17.0399 11.28 17.0599 11.44 17.0599C12.59 17.0599 13.75 17.0599 14.9 17.0599C14.96 17.0599 15.01 17.0599 15.07 17.0599V29.2599Z" fill="#00008E"/>
<path d="M13.19 15.4C12.04 15.39 11 14.46 11 13.18C11 11.92 12.01 11 13.2 11C14.44 11 15.39 12.02 15.37 13.22C15.36 14.37 14.4 15.39 13.19 15.4Z" fill="#00008E"/>
</g>
</g>
<defs>
<clipPath id="clip0_108_9751">
<rect width="40" height="40" fill="white"/>
</clipPath>
<clipPath id="clip1_108_9751">
<rect width="18.27" height="18.27" fill="white" transform="translate(11 11)"/>
</clipPath>
</defs>
</svg>
