<svg width="40" height="40" viewBox="0 0 40 40" fill="none" xmlns="http://www.w3.org/2000/svg">
<g clip-path="url(#clip0_108_9736)">
<circle cx="20" cy="20" r="20" fill="white"/>
<path d="M25.8629 17.0593C25.8463 17.2005 25.8319 17.3326 25.8153 17.464C25.7567 17.9342 25.6987 18.4049 25.6384 18.8751C25.5583 19.5014 25.4759 20.1271 25.3941 20.7528C25.3852 20.8206 25.3924 20.9107 25.3537 20.948C25.3189 20.9819 25.2321 20.9589 25.168 20.9589C24.1762 20.9589 23.1838 20.9589 22.192 20.9584C22.1765 20.9584 22.1605 20.9601 22.1345 20.9618C22.1345 21.0083 22.1345 21.0531 22.1345 21.0973C22.1356 24.2954 22.1362 27.4935 22.1367 30.6922C22.1367 30.7754 22.1328 30.8592 22.1345 30.9425C22.135 30.9861 22.119 31.0039 22.0781 30.9993C22.0665 30.9981 22.0549 30.9993 22.0438 30.9993C20.8126 30.9993 19.582 30.9993 18.3508 30.9993C18.3237 30.9993 18.2972 30.9993 18.2612 30.9993C18.2612 30.9367 18.2612 30.8822 18.2612 30.8282C18.2612 27.6703 18.2612 24.513 18.2612 21.355C18.2612 21.25 18.2574 21.1449 18.2601 21.0399C18.2618 20.9802 18.2463 20.9578 18.1833 20.9578C17.5519 20.9601 16.92 20.9589 16.2887 20.9589C15.8801 20.9589 15.471 20.9578 15.0625 20.9601C15.0017 20.9601 15.0028 20.9291 15.0028 20.8849C15.0028 19.9779 15.0028 19.0708 15.0022 18.1638C15.0022 17.8154 15.0022 17.4669 15 17.1184C15 17.0656 15.0199 17.0524 15.0647 17.0524C15.2073 17.0536 15.3494 17.0524 15.492 17.0524C16.3782 17.0524 17.265 17.053 18.1512 17.0524C18.2856 17.0524 18.2629 17.0645 18.2629 16.9347C18.2618 16.1781 18.2601 15.4215 18.2629 14.6649C18.264 14.3096 18.2712 13.9536 18.2806 13.5983C18.2883 13.2992 18.3497 13.0082 18.4066 12.716C18.4857 12.3089 18.6123 11.9197 18.7831 11.5472C19.0861 10.887 19.5206 10.3388 20.0956 9.91109C20.6645 9.488 21.3014 9.23714 21.983 9.10682C22.4944 9.00923 23.0135 8.9857 23.5337 9.00751C23.9556 9.02531 24.3785 9.03621 24.8003 9.05975C25.1807 9.08099 25.5605 9.11716 25.9403 9.14414C26.0011 9.14873 26 9.1849 26 9.23139C25.9983 10.2412 25.9978 11.2504 25.9972 12.2602C25.9972 12.375 25.9978 12.4892 25.9994 12.604C26 12.6465 25.9862 12.6597 25.9425 12.6597C25.3018 12.6574 24.661 12.6522 24.0208 12.6597C23.7438 12.6631 23.4646 12.6608 23.1932 12.7395C22.8228 12.8463 22.516 13.0415 22.3341 13.4094C22.2307 13.619 22.1892 13.8469 22.1704 14.0776C22.1511 14.3222 22.1406 14.5679 22.1389 14.8136C22.1345 15.5392 22.1378 16.2648 22.135 16.9904C22.135 17.053 22.1643 17.053 22.2069 17.0524C22.5696 17.0519 22.9328 17.0513 23.2955 17.0519C24.127 17.0519 24.9579 17.053 25.7894 17.0542C25.8098 17.0542 25.8297 17.0559 25.8634 17.0576L25.8629 17.0593Z" fill="#00008E"/>
</g>
<defs>
<clipPath id="clip0_108_9736">
<rect width="40" height="40" fill="white"/>
</clipPath>
</defs>
</svg>
