<svg width="40" height="40" viewBox="0 0 40 40" fill="none" xmlns="http://www.w3.org/2000/svg">
<g clip-path="url(#clip0_108_9739)">
<circle cx="20" cy="20" r="20" fill="white"/>
<g clip-path="url(#clip1_108_9739)">
<path d="M30.9998 19.9956C30.9998 21.6064 31.0086 23.2172 30.9998 24.8281C30.9823 27.4457 29.8 29.3366 27.4354 30.4747C26.6647 30.8424 25.8414 30.9825 24.9919 30.9825C21.6726 30.9825 18.3533 31.0087 15.0341 30.9825C12.4505 30.9562 10.6026 29.7043 9.49905 27.3756C9.13997 26.6227 9.0086 25.8086 9.0086 24.9769C9.0086 21.6589 8.98233 18.341 9.01736 15.023C9.05239 12.4405 10.296 10.5933 12.6256 9.49022C13.3788 9.14004 14.1933 9.00872 15.0253 9.00872C18.3446 9.00872 21.6639 8.98246 24.9831 9.01748C27.5667 9.04374 29.4147 10.2956 30.5182 12.6243C30.8772 13.3947 30.9998 14.2264 30.9998 15.0756C30.9998 16.7127 30.9998 18.3585 30.9998 19.9956ZM26.0166 19.9956C26.0166 16.6864 23.3016 13.99 19.9998 13.99C16.6893 13.99 13.9919 16.7039 13.9919 20.0043C13.9919 23.3135 16.7069 26.0099 20.0086 26.0099C23.3191 26.0099 26.0166 23.296 26.0166 19.9956ZM24.3876 13.6311C24.3876 14.5941 25.1846 15.3995 26.1479 15.4082C27.1026 15.4258 27.9346 14.5941 27.9346 13.6311C27.9346 12.6593 27.1201 11.8539 26.1479 11.8627C25.1758 11.8627 24.3876 12.6681 24.3876 13.6311Z" fill="#00008E"/>
<path d="M20.0175 15.2857C22.6186 15.2944 24.7293 17.413 24.7293 20.0043C24.7293 22.6132 22.5836 24.7493 19.9825 24.723C17.3726 24.6967 15.2707 22.5782 15.2882 19.9868C15.3057 17.378 17.4251 15.2769 20.0175 15.2857Z" fill="#00008E"/>
</g>
</g>
<defs>
<clipPath id="clip0_108_9739">
<rect width="40" height="40" fill="white"/>
</clipPath>
<clipPath id="clip1_108_9739">
<rect width="22" height="22" fill="white" transform="translate(9 9)"/>
</clipPath>
</defs>
</svg>
