<svg width="40" height="40" viewBox="0 0 40 40" fill="none" xmlns="http://www.w3.org/2000/svg">
<g clip-path="url(#clip0_108_9744)">
<circle cx="20" cy="20" r="20" fill="white"/>
<path d="M7.04 27.6795C9.84 27.9095 12.37 27.2295 14.7 25.4795C13.21 25.3695 12 24.8395 11.02 23.8395C10.47 23.2695 10.05 22.6095 9.78 21.7795H11.94C11.94 21.7795 11.96 21.7095 11.97 21.6795C9.44 20.8595 8.05 19.1495 7.88 16.4195C8.64 16.7495 9.34 17.0395 10.18 17.0295C7.88 15.0495 7.37 12.7295 8.65 9.94951C11.54 13.3495 15.16 15.2195 19.59 15.5195C19.56 15.2095 19.52 14.9295 19.51 14.6395C19.39 12.4395 20.59 10.3995 22.54 9.50951C24.57 8.56951 26.85 8.94951 28.47 10.4895C28.62 10.6295 28.74 10.6695 28.94 10.6195C29.93 10.3795 30.87 10.0395 31.76 9.53951C31.82 9.49951 31.9 9.48951 32.01 9.43951C31.6 10.6595 30.87 11.5495 29.87 12.3095C30.18 12.2495 30.48 12.1995 30.79 12.1295C31.11 12.0595 31.42 11.9695 31.73 11.8795C32.04 11.7795 32.33 11.6695 32.72 11.5295C32.11 12.4495 31.44 13.2095 30.64 13.8195C30.26 14.1095 30.13 14.3995 30.11 14.8995C29.93 20.5295 27.57 24.9695 22.76 27.9895C20.8 29.2195 18.6 29.8195 16.29 29.9895C14.05 30.1595 11.87 29.8995 9.77 29.0995C8.82 28.7395 7.92 28.2495 7 27.8195C7.01 27.7695 7.02 27.7295 7.04 27.6795Z" fill="#00008E"/>
</g>
<defs>
<clipPath id="clip0_108_9744">
<rect width="40" height="40" fill="white"/>
</clipPath>
</defs>
</svg>
