<svg width="40" height="40" viewBox="0 0 40 40" fill="none" xmlns="http://www.w3.org/2000/svg">
<g clip-path="url(#clip0_108_9747)">
<circle cx="20" cy="20" r="20" fill="white"/>
<g clip-path="url(#clip1_108_9747)">
<path d="M20.6875 10C21.9545 10.0269 23.4713 10.0538 24.9971 10.0896C25.9965 10.1165 27.0047 10.1613 28.0041 10.2151C28.584 10.2509 29.164 10.3226 29.7529 10.3764C30.1812 10.4123 30.6005 10.484 31.0199 10.5915C31.6891 10.7618 32.2512 11.1024 32.7063 11.6132C33.0721 12.0255 33.322 12.5005 33.4647 13.0382C33.6075 13.567 33.6699 14.1047 33.7502 14.6514C33.8484 15.2698 33.8841 15.8882 33.9109 16.5156C33.9465 17.2057 33.9912 17.8868 33.9912 18.5769C33.9912 19.5 33.9733 20.4231 33.9555 21.3462C33.9376 21.9198 33.9109 22.4934 33.8752 23.067C33.8395 23.5509 33.777 24.0439 33.7146 24.5278C33.6789 24.8594 33.6343 25.191 33.5718 25.5137C33.4647 26.0604 33.313 26.5891 32.9918 27.0552C32.5278 27.7363 31.9033 28.2024 31.1181 28.4174C30.7344 28.525 30.3418 28.5877 29.9492 28.6236C28.9588 28.7132 27.9594 28.7939 26.969 28.8566C26.2017 28.9014 25.4254 28.9193 24.6491 28.9283C23.2929 28.9552 21.9366 28.9821 20.5804 28.991C19.7773 28.991 18.9654 28.9731 18.1623 28.9552C17.966 28.9552 17.7697 28.9552 17.5735 28.9552C16.5206 28.9283 15.4588 28.9193 14.4059 28.8745C13.6564 28.8476 12.9158 28.7759 12.1663 28.7132C11.7737 28.6863 11.3811 28.6684 10.9885 28.6057C10.4888 28.534 9.98026 28.4623 9.50736 28.2561C8.74001 27.9245 8.16896 27.3868 7.7942 26.634C7.52652 26.1052 7.42837 25.5226 7.34807 24.9401C7.30346 24.6085 7.24992 24.2769 7.21423 23.9453C7.17854 23.5778 7.15177 23.2104 7.125 22.8429C7.08039 22.1708 7.03578 21.4986 7.01793 20.8264C7.00009 20.1722 6.99116 19.5179 7.01793 18.8726C7.03578 18.0392 7.08039 17.2146 7.125 16.3811C7.15177 15.8703 7.17854 15.3684 7.241 14.8665C7.3213 14.2033 7.39268 13.5222 7.59791 12.8769C7.82989 12.1509 8.25818 11.5594 8.87385 11.1113C9.39136 10.7259 9.98026 10.5198 10.6138 10.4481C11.4436 10.3585 12.2734 10.2778 13.1032 10.2061C13.5672 10.1703 14.0311 10.1613 14.5041 10.1434C15.432 10.1075 16.36 10.0717 17.2879 10.0538C18.3408 10.0269 19.3937 10.0179 20.6964 10L20.6875 10ZM24.8633 19.509C22.4988 18.1467 20.161 16.7934 17.8144 15.4401V23.5868C20.161 22.2335 22.4988 20.8802 24.8633 19.5179V19.509Z" fill="#00008E"/>
</g>
</g>
<defs>
<clipPath id="clip0_108_9747">
<rect width="40" height="40" fill="white"/>
</clipPath>
<clipPath id="clip1_108_9747">
<rect width="27" height="19" fill="white" transform="translate(7 10)"/>
</clipPath>
</defs>
</svg>
