<svg width="692" height="481" viewBox="0 0 692 481" fill="none" xmlns="http://www.w3.org/2000/svg">
<g clip-path="url(#clip0_109_12873)">
<path d="M678.666 175.352C678.666 105.971 593.709 49.7267 488.905 49.7267C480.583 49.7267 472.394 50.0828 464.354 50.7703C418.237 54.7209 371.755 48.0868 328.999 30.3959C299.875 18.3453 265.449 11.3799 228.567 11.3799C123.763 11.3799 38.8068 67.6246 38.8068 137.005C38.8068 170.631 58.7619 201.168 91.2627 223.712C102.688 231.638 109.409 244.6 109.384 258.489C109.384 258.564 109.384 258.646 109.384 258.721C109.384 345.179 215.25 415.264 345.842 415.264C438.084 415.264 517.979 380.304 556.96 329.302C577.281 302.716 601.874 279.733 628.99 260.104C659.839 237.767 678.666 208.025 678.666 175.368V175.352Z" fill="#F2F2F2"/>
<path d="M469.956 22.0791C470.651 12.3792 445.825 2.70371 414.505 0.468284C383.186 -1.76714 357.233 4.28399 356.538 13.9839C355.844 23.6838 380.67 33.3593 411.989 35.5947C443.308 37.8301 469.261 31.779 469.956 22.0791Z" fill="#F2F2F2"/>
<path d="M336.392 481C453.97 481 549.285 474.693 549.285 466.912C549.285 459.131 453.97 452.824 336.392 452.824C218.814 452.824 123.498 459.131 123.498 466.912C123.498 474.693 218.814 481 336.392 481Z" fill="#CCCCCC"/>
<path d="M565.366 481C635.304 481 692 474.693 692 466.912C692 459.131 635.304 452.824 565.366 452.824C495.427 452.824 438.731 459.131 438.731 466.912C438.731 474.693 495.427 481 565.366 481Z" fill="#CCCCCC"/>
<path d="M563.789 46.5959H537.918C527.74 46.5959 519.49 54.8316 519.49 64.9908C519.49 75.15 527.74 83.3857 537.918 83.3857H563.789C573.967 83.3857 582.218 75.15 582.218 64.9908C582.218 54.8316 573.967 46.5959 563.789 46.5959Z" fill="#42210B"/>
<path d="M610.685 143.237C604.478 137.207 594.549 137.342 588.509 143.538C582.469 149.734 582.604 159.644 588.811 165.673L618.864 194.866C625.071 200.895 635 200.76 641.04 194.565C647.08 188.369 646.945 178.459 640.738 172.429L610.685 143.237Z" fill="#0396FF"/>
<path d="M556.579 453.611H530.235L526.551 260.278H560.263L556.579 453.611Z" fill="black"/>
<path d="M620.485 453.611H594.141L564.967 260.278H598.688L620.485 453.611Z" fill="black"/>
<path d="M553.908 162.935C557.679 155.153 554.415 145.792 546.618 142.028C538.821 138.264 529.444 141.522 525.673 149.305L507.415 186.988C503.644 194.77 506.908 204.131 514.705 207.895C522.502 211.659 531.879 208.401 535.65 200.618L553.908 162.935Z" fill="#0396FF"/>
<path d="M518.71 221.144C528.237 221.144 535.96 213.435 535.96 203.926C535.96 194.416 528.237 186.707 518.71 186.707C509.183 186.707 501.459 194.416 501.459 203.926C501.459 213.435 509.183 221.144 518.71 221.144Z" fill="#0E5CAD"/>
<path d="M483.422 180.242C476.895 177.856 469.665 181.204 467.275 187.72C464.885 194.236 468.239 201.452 474.767 203.838L512.244 217.535C518.772 219.921 526.001 216.573 528.392 210.057C530.782 203.541 527.427 196.324 520.9 193.939L483.422 180.242Z" fill="#FFAA85"/>
<path d="M471.655 215.662C485.082 215.662 495.967 207.077 495.967 196.488C495.967 185.899 485.082 177.315 471.655 177.315C458.229 177.315 447.344 185.899 447.344 196.488C447.344 207.077 458.229 215.662 471.655 215.662Z" fill="#FFD3A5"/>
<path d="M571.672 123.273C591.345 123.273 607.317 139.217 607.317 158.854V253.238H526.551V168.312C526.551 143.457 546.771 123.273 571.672 123.273Z" fill="#ABDCFF"/>
<path d="M572.452 123.356C568.154 123.356 564.005 123.969 560.072 125.087C574.294 129.758 584.574 169.463 584.574 185.224L585.445 190.533C589.785 216.912 572.584 242.024 546.39 247.573L527.331 251.607V251.656H608.097V158.928C608.097 139.283 592.141 123.348 572.452 123.348V123.356Z" fill="#0396FF"/>
<path d="M563.806 156.046C563.806 155.988 563.781 155.938 563.773 155.88C564.03 155.723 564.279 155.549 564.503 155.325L568.029 151.805C569.506 150.331 569.506 147.946 568.029 146.472L564.503 142.952C563.026 141.477 560.636 141.477 559.159 142.952L555.633 146.472C554.156 147.946 554.156 150.331 555.633 151.805L559.159 155.325C559.159 155.325 559.226 155.375 559.259 155.4C559.201 155.599 559.151 155.806 559.126 156.046L554.073 203.561C553.89 205.276 554.405 206.99 555.459 208.207L559.997 213.442C560.802 214.378 562.113 214.378 562.926 213.442L567.465 208.207C568.519 206.99 569.033 205.276 568.851 203.561L563.797 156.046H563.806Z" fill="#EA5455"/>
<path d="M563.905 106.617H563.897C555.836 106.617 549.302 113.14 549.302 121.186V135.953C549.302 143.999 555.836 150.522 563.897 150.522H563.905C571.966 150.522 578.5 143.999 578.5 135.953V121.186C578.5 113.14 571.966 106.617 563.905 106.617Z" fill="#FFAA85"/>
<path d="M560.396 44.7324H560.387C544.944 44.7324 532.425 57.2287 532.425 72.6436V101.035C532.425 116.45 544.944 128.946 560.387 128.946H560.396C575.839 128.946 588.358 116.45 588.358 101.035V72.6436C588.358 57.2287 575.839 44.7324 560.396 44.7324Z" fill="#FFD3A5"/>
<path d="M578.243 54.3564L549.725 49.0475C548.456 48.8073 547.194 48.7079 545.95 48.7411C537.843 53.6276 532.425 62.5062 532.425 72.6436V79.1783C535.064 82.2179 538.698 84.421 542.963 85.2161L571.481 90.525C577.92 91.7259 584.192 89.4235 588.349 84.9676V72.6436C588.349 66.2994 586.225 60.4522 582.657 55.7644C581.28 55.1267 579.803 54.6463 578.243 54.3564Z" fill="#FFAA85"/>
<path d="M526.551 251.665H607.317V257.537C607.317 279.783 589.221 297.846 566.934 297.846C544.647 297.846 526.551 279.783 526.551 257.537V251.665Z" fill="black"/>
<path d="M605.417 251.665H527.662C526.182 251.665 524.982 252.862 524.982 254.34V259.947C524.982 261.424 526.182 262.622 527.662 262.622H605.417C606.897 262.622 608.097 261.424 608.097 259.947V254.34C608.097 252.862 606.897 251.665 605.417 251.665Z" fill="#603813"/>
<path d="M570.112 250.886H555.118C552.762 250.886 550.854 252.791 550.854 255.143V259.152C550.854 261.504 552.762 263.409 555.118 263.409H570.112C572.468 263.409 574.377 261.504 574.377 259.152V255.143C574.377 252.791 572.468 250.886 570.112 250.886ZM571.24 258.613C571.24 260.336 569.838 261.736 568.112 261.736H557.118C555.392 261.736 553.99 260.336 553.99 258.613V255.673C553.99 253.95 555.392 252.551 557.118 252.551H568.112C569.838 252.551 571.24 253.95 571.24 255.673V258.613Z" fill="#C7B299"/>
<path d="M631.969 206.236C641.496 206.236 649.219 198.527 649.219 189.018C649.219 179.508 641.496 171.799 631.969 171.799C622.441 171.799 614.718 179.508 614.718 189.018C614.718 198.527 622.441 206.236 631.969 206.236Z" fill="#0E5CAD"/>
<path d="M594.714 211.859C589.921 216.886 590.119 224.838 595.155 229.622C600.191 234.405 608.158 234.208 612.95 229.182L640.463 200.323C645.255 195.296 645.058 187.343 640.022 182.56C634.986 177.776 627.019 177.973 622.226 183L594.714 211.859Z" fill="#FFAA85"/>
<path d="M628.134 244.974C633.423 238.128 629.371 226.158 619.084 218.239C608.796 210.32 596.169 209.449 590.88 216.295C585.591 223.141 589.642 235.11 599.93 243.03C610.217 250.949 622.845 251.819 628.134 244.974Z" fill="#FFD3A5"/>
<path d="M549.285 128.781L541.444 142.869V158.522L547.717 146.778L557.392 148.989C557.392 148.989 548.066 141.088 549.285 128.781Z" fill="#0396FF"/>
<path d="M578.5 128.681L585.097 144.484L583.744 161.347L578.5 148.203L568.668 149.809C568.668 149.809 578.65 142.041 578.492 128.681H578.5Z" fill="#0396FF"/>
<path d="M533.363 445.237H542.465C554.015 445.237 563.399 454.596 563.399 466.133H512.428C512.428 454.605 521.804 445.237 533.363 445.237Z" fill="#603813"/>
<path d="M608.645 445.237H617.747C629.297 445.237 638.681 454.596 638.681 466.133H587.71C587.71 454.605 597.086 445.237 608.645 445.237Z" fill="#603813"/>
<path d="M527.194 455.619C531.814 453.245 534.917 450.075 534.125 448.537C533.332 447 528.944 447.678 524.323 450.051C519.703 452.425 516.599 455.595 517.392 457.132C518.185 458.67 522.573 457.992 527.194 455.619Z" fill="#8C6239"/>
<path d="M602.48 455.623C607.1 453.25 610.203 450.079 609.411 448.542C608.618 447.004 604.23 447.682 599.609 450.056C594.989 452.429 591.885 455.599 592.678 457.137C593.471 458.674 597.859 457.996 602.48 455.623Z" fill="#8C6239"/>
<path d="M584.498 45.014L555.983 39.7027C545.978 37.8391 536.354 44.4243 534.487 54.4111C532.62 64.3979 539.217 74.0046 549.222 75.8681L577.737 81.1795C587.742 83.0431 597.366 76.4579 599.233 66.4711C601.1 56.4842 594.503 46.8776 584.498 45.014Z" fill="#42210B"/>
<path d="M586.565 63.8147H589.635C596.365 63.8147 601.824 69.2644 601.824 75.9813V85.3734C601.824 93.7799 594.987 100.604 586.565 100.604C579.836 100.604 574.377 95.1547 574.377 88.4378V75.9813C574.377 69.2644 579.836 63.8147 586.565 63.8147Z" fill="#42210B"/>
<path d="M587.321 106.079C592.732 106.079 597.12 101.7 597.12 96.2977C597.12 90.8956 592.732 86.5164 587.321 86.5164C581.909 86.5164 577.521 90.8956 577.521 96.2977C577.521 101.7 581.909 106.079 587.321 106.079Z" fill="#FFD3A5"/>
<path d="M587.321 93.5645C590.026 93.5645 592.299 95.3866 592.988 97.8713C593.129 97.3744 593.203 96.8526 593.203 96.306C593.203 93.0676 590.573 90.4338 587.321 90.4338C584.068 90.4338 581.438 93.0593 581.438 96.306C581.438 96.8526 581.521 97.3744 581.653 97.8713C582.342 95.3866 584.616 93.5645 587.321 93.5645Z" fill="#FFAA85"/>
<path d="M557.371 114.318L570.904 109.369C572.049 108.951 573.316 109.537 573.735 110.68C575.102 114.405 573.182 118.539 569.45 119.903L565.305 121.419C561.573 122.784 557.432 120.867 556.065 117.142C555.646 115.998 556.233 114.734 557.378 114.315L557.371 114.318Z" fill="white"/>
<path d="M613.092 113.069L618.353 111.612C619.672 111.247 619.672 109.384 618.353 109.019L613.092 107.562C612.636 107.437 612.279 107.081 612.155 106.626L610.694 101.375C610.329 100.058 608.462 100.058 608.097 101.375L606.637 106.626C606.512 107.081 606.156 107.437 605.699 107.562L600.439 109.019C599.119 109.384 599.119 111.247 600.439 111.612L605.699 113.069C606.156 113.194 606.512 113.55 606.637 114.005L608.097 119.256C608.462 120.573 610.329 120.573 610.694 119.256L612.155 114.005C612.279 113.55 612.636 113.194 613.092 113.069Z" fill="white"/>
<path d="M587.827 116.018L590.681 115.223C591.394 115.024 591.394 114.013 590.681 113.815L587.827 113.02C587.578 112.953 587.387 112.755 587.32 112.514L586.524 109.665C586.325 108.953 585.312 108.953 585.113 109.665L584.317 112.514C584.25 112.763 584.051 112.953 583.811 113.02L580.956 113.815C580.243 114.013 580.243 115.024 580.956 115.223L583.811 116.018C584.06 116.084 584.25 116.283 584.317 116.523L585.113 119.372C585.312 120.084 586.325 120.084 586.524 119.372L587.32 116.523C587.387 116.275 587.586 116.084 587.827 116.018Z" fill="white"/>
<path d="M602.795 125.75L604.62 125.244C605.077 125.12 605.077 124.474 604.62 124.342L602.795 123.836C602.637 123.795 602.513 123.671 602.471 123.513L601.965 121.691C601.841 121.236 601.194 121.236 601.061 121.691L600.555 123.513C600.513 123.671 600.389 123.795 600.231 123.836L598.406 124.342C597.949 124.466 597.949 125.112 598.406 125.244L600.231 125.75C600.389 125.791 600.513 125.915 600.555 126.073L601.061 127.895C601.185 128.35 601.833 128.35 601.965 127.895L602.471 126.073C602.513 125.915 602.637 125.791 602.795 125.75Z" fill="white"/>
<path d="M130.069 155.458L218.868 97.979L108.33 98.6664L130.069 155.458Z" fill="#0396FF"/>
<path d="M70.3036 156.394L218.868 97.979L101.593 105.508L70.3036 156.394Z" fill="white"/>
<path d="M108.33 98.6665L218.868 97.9791L119.955 64.7341L108.33 98.6665Z" fill="white"/>
<path d="M66.7689 129.302L65.0099 125.807C67.7978 124.408 69.4739 123.828 69.5485 123.803L70.8263 127.505C70.8263 127.505 69.2996 128.043 66.7689 129.311V129.302Z" fill="#0396FF"/>
<path d="M214.985 435.53L214.951 431.613C218.055 431.588 221.158 431.489 224.195 431.315L224.419 435.224C221.324 435.406 218.146 435.506 214.976 435.53H214.985ZM205.551 435.381C202.447 435.257 199.278 435.067 196.133 434.793L196.465 430.892C199.552 431.149 202.663 431.348 205.708 431.464L205.551 435.373V435.381ZM233.845 434.437L233.413 430.544C236.483 430.205 239.561 429.782 242.565 429.277L243.212 433.137C240.142 433.65 236.989 434.081 233.845 434.429V434.437ZM186.757 433.799C183.679 433.41 180.542 432.938 177.431 432.408L178.086 428.548C181.14 429.07 184.226 429.526 187.255 429.915L186.757 433.799ZM252.489 431.315L251.617 427.497C254.629 426.809 257.633 426.031 260.537 425.169L261.649 428.921C258.662 429.799 255.584 430.602 252.489 431.306V431.315ZM168.171 430.652C165.134 430.014 162.039 429.294 158.986 428.532L159.94 424.739C162.944 425.492 165.98 426.196 168.976 426.826L168.163 430.652H168.171ZM149.875 426.055C146.872 425.178 143.835 424.233 140.864 423.248L142.101 419.537C145.03 420.506 148.008 421.442 150.97 422.304L149.867 426.064L149.875 426.055ZM270.652 425.964L269.299 422.287C272.195 421.227 275.066 420.059 277.829 418.817L279.43 422.386C276.576 423.662 273.622 424.863 270.652 425.956V425.964ZM131.978 420.117C129.041 419.024 126.095 417.864 123.208 416.663L124.709 413.052C127.547 414.228 130.451 415.371 133.347 416.448L131.978 420.117ZM287.943 418.212L286.085 414.767C288.781 413.317 291.445 411.752 294.009 410.129L296.116 413.425C293.478 415.106 290.723 416.721 287.943 418.212ZM114.578 412.903C111.724 411.603 108.87 410.228 106.09 408.837L107.849 405.342C110.587 406.716 113.4 408.058 116.213 409.35L114.578 412.912V412.903ZM303.916 408.033L301.559 404.903C303.999 403.072 306.397 401.126 308.687 399.113L311.276 402.054C308.911 404.124 306.438 406.137 303.916 408.033ZM97.7678 404.472C95.0131 402.965 92.2667 401.391 89.6115 399.809L91.6195 396.446C94.2331 398.012 96.9381 399.552 99.6513 401.043L97.7678 404.472ZM318.154 395.527L315.341 392.794C317.457 390.624 319.531 388.33 321.49 385.986L324.502 388.495C322.477 390.914 320.336 393.283 318.146 395.527H318.154ZM81.6129 394.831C78.9743 393.117 76.3523 391.345 73.8133 389.556L76.0785 386.359C78.576 388.123 81.1565 389.87 83.7536 391.552L81.6129 394.831ZM66.2212 383.973C63.7154 382.052 61.2428 380.072 58.8615 378.085L61.3756 375.087C63.7071 377.033 66.1383 378.979 68.6026 380.876L66.213 383.982L66.2212 383.973ZM330.31 381.017L327.123 378.739C328.891 376.279 330.6 373.703 332.21 371.094L335.554 373.14C333.894 375.832 332.135 378.482 330.31 381.017ZM51.7589 371.89C49.4274 369.761 47.129 367.574 44.9385 365.38L47.7098 362.613C49.8588 364.767 52.1157 366.912 54.3975 368.999L51.7506 371.89H51.7589ZM340.233 364.924L336.765 363.102C338.176 360.427 339.528 357.644 340.781 354.828L344.365 356.427C343.071 359.317 341.685 362.174 340.242 364.924H340.233ZM38.4334 358.547C36.3093 356.203 34.2349 353.801 32.2684 351.399L35.3053 348.923C37.2303 351.267 39.2548 353.627 41.3375 355.913L38.4334 358.539V358.547ZM347.958 347.697L344.291 346.322C345.353 343.498 346.365 340.574 347.303 337.609L351.045 338.785C350.091 341.808 349.053 344.807 347.966 347.697H347.958ZM26.4935 343.937C24.6266 341.378 22.826 338.761 21.1417 336.152L24.4357 334.031C26.0703 336.574 27.8294 339.133 29.6548 341.626L26.4852 343.937H26.4935ZM353.634 329.725L349.842 328.747C350.605 325.815 351.31 322.792 351.941 319.761L355.783 320.556C355.135 323.654 354.414 326.735 353.642 329.725H353.634ZM16.2711 328.052C14.7195 325.285 13.2592 322.453 11.9316 319.645L15.4746 317.972C16.769 320.697 18.1878 323.447 19.6979 326.138L16.2711 328.043V328.052ZM357.5 311.305L353.634 310.675C354.123 307.686 354.563 304.613 354.936 301.524L358.828 301.996C358.446 305.135 357.998 308.265 357.508 311.305H357.5ZM8.1729 310.957C7.01957 308 5.9741 304.986 5.06139 302.012L8.8118 300.869C9.69132 303.751 10.7036 306.667 11.8237 309.532L8.1729 310.949V310.957ZM2.66345 292.869C1.98307 289.779 1.42715 286.64 1.01228 283.534L4.89544 283.013C5.29372 286.003 5.83305 289.034 6.48854 292.024L2.65516 292.86L2.66345 292.869ZM359.774 292.653L355.866 292.33C356.114 289.315 356.322 286.201 356.471 283.096L360.388 283.286C360.238 286.442 360.031 289.597 359.774 292.662V292.653ZM0.12446 274.076C0.0414868 272.353 0 270.614 0 268.891C0 267.459 0.00829736 266.042 0.0248921 264.634L3.94954 264.684C3.93295 266.076 3.92465 267.475 3.92465 268.883C3.92465 270.54 3.96614 272.221 4.04081 273.886L0.12446 274.068V274.076ZM4.22336 255.433L0.307002 255.259C0.448058 252.103 0.647194 248.956 0.887818 245.883L4.79588 246.19C4.55525 249.213 4.36441 252.319 4.22336 255.433ZM5.70029 236.988L1.80882 236.533C2.17391 233.402 2.60537 230.263 3.08662 227.215L6.96149 227.828C6.48854 230.826 6.06537 233.907 5.70858 236.988H5.70029ZM8.59607 218.734L4.75439 217.956C5.38499 214.85 6.08197 211.761 6.83703 208.771L10.6372 209.723C9.89875 212.655 9.21007 215.686 8.59607 218.726V218.734ZM13.1181 200.844L9.36772 199.693C10.297 196.662 11.3093 193.656 12.3797 190.757L16.0554 192.107C15.0099 194.939 14.0225 197.879 13.1098 200.844H13.1181ZM19.4988 183.568L15.906 182.002C17.1838 179.087 18.5529 176.221 19.9718 173.472L23.4566 175.269C22.071 177.944 20.7434 180.735 19.4988 183.576V183.568ZM27.9538 167.243L24.6017 165.214C26.2529 162.498 28.0119 159.839 29.8207 157.305L33.0069 159.582C31.2562 162.034 29.5469 164.61 27.9455 167.252L27.9538 167.243ZM38.6408 152.335L35.6455 149.818C37.7032 147.374 39.8688 145.022 42.0759 142.819L44.8472 145.585C42.7148 147.714 40.6322 149.983 38.6491 152.335H38.6408ZM51.6096 139.415L49.1038 136.409C51.593 134.346 54.1652 132.417 56.7374 130.686L58.9279 133.932C56.4635 135.589 53.9992 137.436 51.6096 139.415Z" fill="#0396FF"/>
<path d="M360.67 273.612L356.745 273.554C356.77 272.014 356.778 270.457 356.778 268.891H360.703C360.703 270.482 360.695 272.055 360.67 273.621V273.612Z" fill="#0396FF"/>
<path d="M175.688 67.3182L178.659 66.4899C179.406 66.2829 179.406 65.231 178.659 65.024L175.688 64.1958C175.431 64.1212 175.232 63.9225 175.157 63.6657L174.328 60.7007C174.12 59.9553 173.066 59.9553 172.859 60.7007L172.029 63.6657C171.955 63.9225 171.755 64.1212 171.498 64.1958L168.528 65.024C167.781 65.231 167.781 66.2829 168.528 66.4899L171.498 67.3182C171.755 67.3927 171.955 67.5915 172.029 67.8482L172.859 70.8133C173.066 71.5587 174.12 71.5587 174.328 70.8133L175.157 67.8482C175.232 67.5915 175.431 67.3927 175.688 67.3182Z" fill="white"/>
<path d="M196.216 62.9451L198.149 62.4068C198.631 62.2743 198.631 61.5868 198.149 61.4543L196.216 60.916C196.05 60.8663 195.917 60.742 195.868 60.5681L195.328 58.6384C195.195 58.158 194.507 58.158 194.374 58.6384L193.835 60.5681C193.785 60.7338 193.66 60.8663 193.486 60.916L191.553 61.4543C191.072 61.5868 191.072 62.2743 191.553 62.4068L193.486 62.9451C193.652 62.9948 193.785 63.119 193.835 63.293L194.374 65.2227C194.507 65.7031 195.195 65.7031 195.328 65.2227L195.868 63.293C195.917 63.1273 196.042 62.9948 196.216 62.9451Z" fill="white"/>
<path d="M194.557 80.3379L196.49 79.7996C196.971 79.6671 196.971 78.9797 196.49 78.8471L194.557 78.3088C194.391 78.2591 194.258 78.1349 194.208 77.9609L193.669 76.0312C193.536 75.5508 192.847 75.5508 192.715 76.0312L192.175 77.9609C192.125 78.1266 192.001 78.2591 191.827 78.3088L189.893 78.8471C189.412 78.9797 189.412 79.6671 189.893 79.7996L191.827 80.3379C191.993 80.3876 192.125 80.5119 192.175 80.6858L192.715 82.6156C192.847 83.0959 193.536 83.0959 193.669 82.6156L194.208 80.6858C194.258 80.5202 194.382 80.3876 194.557 80.3379Z" fill="white"/>
<path d="M94.9882 172.271L96.9214 171.732C97.4027 171.6 97.4027 170.913 96.9214 170.78L94.9882 170.242C94.8222 170.192 94.6895 170.068 94.6397 169.894L94.1003 167.964C93.9676 167.484 93.2789 167.484 93.1462 167.964L92.6068 169.894C92.557 170.059 92.4326 170.192 92.2583 170.242L90.325 170.78C89.8438 170.913 89.8438 171.6 90.325 171.732L92.2583 172.271C92.4243 172.32 92.557 172.445 92.6068 172.619L93.1462 174.548C93.2789 175.029 93.9676 175.029 94.1003 174.548L94.6397 172.619C94.6895 172.453 94.8139 172.32 94.9882 172.271Z" fill="white"/>
<path d="M116.47 166.482L119.009 165.778C119.648 165.604 119.648 164.701 119.009 164.527L116.47 163.823C116.254 163.765 116.08 163.591 116.014 163.367L115.308 160.833C115.134 160.195 114.23 160.195 114.056 160.833L113.35 163.367C113.292 163.583 113.118 163.757 112.894 163.823L110.355 164.527C109.716 164.701 109.716 165.604 110.355 165.778L112.894 166.482C113.11 166.54 113.284 166.713 113.35 166.937L114.056 169.471C114.23 170.109 115.134 170.109 115.308 169.471L116.014 166.937C116.072 166.722 116.246 166.548 116.47 166.482Z" fill="white"/>
<path d="M111.591 184.562L115.441 183.493C116.404 183.228 116.404 181.862 115.441 181.597L111.591 180.528C111.259 180.437 110.994 180.172 110.903 179.841L109.832 175.998C109.567 175.037 108.198 175.037 107.932 175.998L106.862 179.841C106.77 180.172 106.505 180.437 106.173 180.528L102.323 181.597C101.361 181.862 101.361 183.228 102.323 183.493L106.173 184.562C106.505 184.653 106.77 184.918 106.862 185.249L107.932 189.092C108.198 190.053 109.567 190.053 109.832 189.092L110.903 185.249C110.994 184.918 111.259 184.653 111.591 184.562Z" fill="white"/>
<path d="M466.818 187.485H207.534C197.933 187.485 190.151 195.254 190.151 204.837V354.853C190.151 364.436 197.933 372.204 207.534 372.204H466.818C476.418 372.204 484.201 364.436 484.201 354.853V204.837C484.201 195.254 476.418 187.485 466.818 187.485Z" fill="#FCCF31"/>
<path d="M466.826 187.485H207.534C202.539 187.485 198.041 189.589 194.872 192.952L336.782 279.841L479.48 192.952C476.31 189.589 471.813 187.485 466.818 187.485H466.826Z" fill="#FF931E"/>
<path d="M191.428 360.584L190.2 358.58L337.653 268.792L338.267 269.173L484.184 358.514L482.948 360.51L337.653 271.55L191.428 360.584Z" fill="#FF931E"/>
<path d="M487.138 93.2498L487.429 104.53L496.896 110.692L486.234 114.452L483.288 125.343L476.418 116.382L465.125 116.954L471.539 107.661L467.507 97.1258L478.343 100.339L487.138 93.2498Z" fill="#FCCF31"/>
<path d="M491.486 136.4L491.627 141.776L496.132 144.707L491.054 146.496L489.652 151.681L486.383 147.416L481.006 147.689L484.06 143.266L482.143 138.247L487.304 139.78L491.486 136.4Z" fill="#FCCF31"/>
<path d="M85.9275 330.619L84.4589 319.438L74.3942 314.303L84.5916 309.45L86.3756 298.302L94.1502 306.493L105.318 304.737L99.9251 314.651L105.045 324.714L93.9261 322.652L85.9275 330.619Z" fill="#FCCF31"/>
<path d="M71.5648 351.565L70.8678 346.239L66.0719 343.796L70.9342 341.485L71.7805 336.177L75.4811 340.077L80.7997 339.241L78.2275 343.962L80.667 348.757L75.3732 347.772L71.5648 351.565Z" fill="#FCCF31"/>
<path d="M160.478 294.747L165.357 290.218C171.853 284.189 182.031 284.558 188.072 291.041C194.112 297.525 193.742 307.685 187.247 313.714L182.367 318.243L160.472 294.741L160.478 294.747Z" fill="#C64249"/>
<path d="M157.484 381.953C152.414 386.665 144.689 387.071 139.147 382.922L121.515 369.728C119.416 368.155 119.25 365.074 121.175 363.285L127.356 357.545C128.85 356.162 131.123 356.038 132.749 357.263L157.135 375.509C159.235 377.083 159.401 380.164 157.476 381.953H157.484Z" fill="#C64249"/>
<path d="M106.022 347.429L123.072 331.603L143.362 353.383L126.312 369.209C121.141 374.009 113.044 373.709 108.242 368.554L105.366 365.467C100.557 360.305 100.857 352.223 106.022 347.429Z" fill="#EA5455"/>
<path d="M198.141 327.107L150.315 355.201C140.657 360.874 128.344 359.077 120.71 350.886C113.076 342.695 112.18 330.304 118.544 321.103L150.083 275.517L198.141 327.099V327.107Z" fill="#FCCF31"/>
<path d="M115.076 340.616C116.047 344.36 117.922 347.904 120.71 350.886C128.344 359.077 140.649 360.874 150.315 355.201L198.141 327.108L182.658 310.485L134.832 338.578C128.692 342.181 121.482 342.769 115.084 340.616H115.076Z" fill="#FF931E"/>
<path d="M153.612 270.13C151.546 267.912 148.072 267.785 145.852 269.845C143.633 271.906 143.508 275.374 145.574 277.591L198.963 334.901C201.029 337.118 204.503 337.246 206.723 335.185C208.943 333.124 209.068 329.657 207.002 327.439L153.612 270.13Z" fill="#EA5455"/>
<path d="M115.455 350.441L107.994 357.367C107.517 357.81 107.49 358.554 107.933 359.029C108.377 359.505 109.122 359.532 109.599 359.09L117.06 352.164C117.537 351.722 117.564 350.977 117.121 350.502C116.678 350.026 115.932 349.999 115.455 350.441Z" fill="#C64249"/>
<path d="M154.124 306.618L130.153 328.868C129.676 329.31 129.649 330.055 130.093 330.53C130.536 331.006 131.281 331.033 131.758 330.591L155.728 308.341C156.205 307.898 156.232 307.154 155.789 306.679C155.346 306.203 154.6 306.176 154.124 306.618Z" fill="#FF931E"/>
<path d="M119.182 354.45L111.721 361.376C111.244 361.818 111.217 362.562 111.66 363.038C112.103 363.514 112.849 363.541 113.325 363.098L120.787 356.172C121.263 355.73 121.29 354.986 120.847 354.51C120.404 354.035 119.659 354.008 119.182 354.45Z" fill="#C64249"/>
<path d="M179.957 270.21C179.616 271.004 179.986 271.924 180.782 272.264C181.578 272.604 182.5 272.236 182.841 271.441L196.194 240.281C196.535 239.486 196.166 238.566 195.369 238.226C194.573 237.886 193.651 238.255 193.311 239.05L179.957 270.21Z" fill="white"/>
<path d="M210.101 301.048C209.291 301.354 208.882 302.257 209.189 303.066C209.495 303.874 210.4 304.282 211.21 303.976L242.967 291.985C243.777 291.679 244.186 290.776 243.879 289.967C243.573 289.159 242.668 288.751 241.858 289.057L210.101 301.048Z" fill="white"/>
<path d="M194.437 283.521C193.803 284.11 193.767 285.1 194.356 285.734C194.946 286.367 195.938 286.403 196.573 285.814L221.44 262.74C222.075 262.151 222.111 261.161 221.521 260.527C220.932 259.894 219.939 259.858 219.305 260.447L194.437 283.521Z" fill="white"/>
</g>
<defs>
<clipPath id="clip0_109_12873">
<rect width="692" height="481" fill="white"/>
</clipPath>
</defs>
</svg>
